<svg width="428" height="111" viewBox="0 0 428 111" fill="none" xmlns="http://www.w3.org/2000/svg">
<path fill-rule="evenodd" clip-rule="evenodd" d="M0 0L17.7219 4.17052C35.7781 8.34104 71.2219 16.6821 107 30.7977C142.778 45.2341 178.222 65.7659 214 69.9364C249.778 74.1069 285.222 61.5954 321 57.7457C356.778 53.5751 392.222 57.7457 410.278 59.6705L428 61.5954V111H410.278C392.222 111 356.778 111 321 111C285.222 111 249.778 111 214 111C178.222 111 142.778 111 107 111C71.2219 111 35.7781 111 17.7219 111H0V0Z" fill="#20DF7F" fill-opacity="0.09"/>
</svg>
