<svg width="428" height="111" viewBox="0 0 428 111" fill="none" xmlns="http://www.w3.org/2000/svg">
<path fill-rule="evenodd" clip-rule="evenodd" d="M0 44.4L14.2667 53.28C28.5333 62.16 57.0667 79.92 85.6 75.48C114.133 71.04 142.667 44.4 171.2 26.64C199.733 8.88 228.267 0 256.8 0C285.333 0 313.867 8.88 342.4 24.42C370.933 39.96 399.467 62.16 413.733 73.26L428 84.36V111H413.733C399.467 111 370.933 111 342.4 111C313.867 111 285.333 111 256.8 111C228.267 111 199.733 111 171.2 111C142.667 111 114.133 111 85.6 111C57.0667 111 28.5333 111 14.2667 111H0V44.4Z" fill="#E5E5E5" fill-opacity="0.13"/>
</svg>
